<svg xmlns="http://www.w3.org/2000/svg" viewBox="0 0 464.28 142.29"><defs><style>.cls-1{fill:#d04d55;}.cls-2{fill:#003945;}</style></defs><title>QuickRN_logo</title><g id="Layer_2" data-name="Layer 2"><g id="Layer_1-2" data-name="Layer 1"><path class="cls-1" d="M64.08,142.29,56,135a35.69,35.69,0,0,1-20.62,6.39C14.52,141.42,0,125.64,0,106.57v-.19c0-19.07,14.71-35,35.52-35s35.33,15.78,35.33,34.85v.19A35,35,0,0,1,64,127.19l7.75,6.58Zm-16.84-15-11.72-10,7.65-8.71,11.91,10.84a25.47,25.47,0,0,0,3.29-12.88v-.19c0-13.17-9.58-24.1-23-24.1S12.49,93,12.49,106.19v.19c0,13.16,9.58,24,23,24A23,23,0,0,0,47.24,127.29Z"/><path class="cls-1" d="M78.5,121.67V89.15H90.21v29c0,7.94,4,12.39,10.94,12.39,6.78,0,11.52-4.65,11.52-12.59V89.15h11.81v51.11H112.67v-7.94c-3.29,4.84-8,9-16,9C85.18,141.32,78.5,133.58,78.5,121.67Z"/><path class="cls-1" d="M134.45,70.18H147V81.31H134.45Zm.48,19h11.72v51.11H134.93Z"/><path class="cls-1" d="M154.29,115v-.19a26.38,26.38,0,0,1,26.62-26.72c9.58,0,15.59,3.59,20.43,8.81L194,104.73c-3.58-3.77-7.36-6.39-13.17-6.39-8.51,0-14.8,7.36-14.8,16.27v.19c0,9.1,6.29,16.36,15.29,16.36,5.52,0,9.58-2.52,13.26-6.29l7.07,7c-5,5.61-10.94,9.58-20.91,9.58A26.1,26.1,0,0,1,154.29,115Z"/><path class="cls-1" d="M207.53,69.6h11.71v42.2l21.2-22.65h14.23L234.34,110l21,30.3H241.6l-15.1-22.17-7.26,7.55v14.62H207.53Z"/><path class="cls-2" d="M260.86,72.5h32c10.36,0,17.52,2.71,22.07,7.26,4,4,6,9.1,6,15.78v.19c0,10.46-5.52,17.33-13.94,20.91l16.17,23.62H301.61L288,119.74h-8.32v20.52H260.86ZM292.12,105c6.3,0,10.07-3.09,10.07-8V96.8c0-5.42-4-8.14-10.16-8.14H279.64V105Z"/><path class="cls-2" d="M327.8,72.5h17.52l27.88,35.81V72.5h18.58v67.76H375.42l-29-37.17v37.17H327.8Z"/><polygon class="cls-1" points="329.04 44.04 373.1 44.06 373.08 0 391.78 18.7 391.78 62.74 347.74 62.74 329.04 44.04"/><polygon class="cls-1" points="464.28 44.04 420.23 44.06 420.24 0 401.54 18.7 401.54 62.74 445.58 62.74 464.28 44.04"/><polygon class="cls-1" points="464.28 91.2 420.23 91.19 420.24 135.24 401.54 116.54 401.54 72.5 445.58 72.5 464.28 91.2"/></g></g></svg>